<svg xmlns="http://www.w3.org/2000/svg" viewBox="0 0 476.84 353.13"><defs><style>.cls-1{font-size:65.89px;font-family:BebasNeue-Regular, Bebas Neue;}.cls-1,.cls-6{fill:#dde0e8;}.cls-2{letter-spacing:0em;}.cls-3{letter-spacing:-0.03em;}.cls-4{letter-spacing:0em;}.cls-5{letter-spacing:0em;}</style></defs><g id="Capa_2" data-name="Capa 2"><g id="Capa_1-2" data-name="Capa 1"><text class="cls-1" transform="translate(0 339.95) scale(2.07 1)"><tspan class="cls-2">J</tspan><tspan class="cls-3" x="17.33" y="0">av</tspan><tspan class="cls-4" x="65.23" y="0">a</tspan><tspan x="91.46" y="0">scri</tspan><tspan class="cls-5" x="180.41" y="0">p</tspan><tspan x="205.98" y="0">t</tspan></text><path class="cls-6" d="M232.76,179l36.92-21.46c2.4,3.28,4.53,6.42,6.9,9.37,12.6,15.72,33.11,22,51.55,15.87,8.21-2.75,14.63-7.46,16-16.64,1.52-9.84-2.42-17.57-11-22.14-10.25-5.47-20.87-10.25-31.48-15-15.26-6.86-30.15-14.15-41.36-27.17C236.26,73.85,239,13.1,296.37,1.9c19.46-3.8,38.86-2.33,56.51,8.34,9.86,6,19.76,17,23.95,26.87L341.92,59.56c-1.78-2.52-3.35-4.81-5-7.05-7.74-10.62-18.33-14-30.8-11.37-6.94,1.45-12,5.7-13.87,12.88s-1.17,14.43,4.67,19.31c5.41,4.51,11.79,8,18.13,11.19,12.79,6.37,26.14,11.64,38.71,18.39,15.64,8.39,28.56,20,33.58,37.81,10.55,37.5-4.89,74.8-52.35,83.08-26.71,4.66-52.45,1.39-75.59-14.1C248,202.05,239.31,191.89,232.76,179Z"/><path class="cls-6" d="M73.36,183.83l36.9-22.36c2.67,4,5.06,7.95,7.77,11.66,7.68,10.53,19.48,14.19,31.83,10.06,8.25-2.77,13-10.41,13.25-21.94.21-9.66.09-19.33.09-29,0-41.32.06-82.63-.08-123.95,0-4.27.94-5.84,5.5-5.72,12,.32,24,.21,36,.05,3.43-.05,4.68,1,4.67,4.55-.09,50.48.09,101-.26,151.44a95.35,95.35,0,0,1-3.71,25c-5.59,19.74-18.67,32.89-38.49,38.27-23.48,6.37-46.49,5.24-67.78-7.93C87.53,206.9,79.42,196.68,73.36,183.83Z"/></g></g></svg>