<svg xmlns="http://www.w3.org/2000/svg" viewBox="0 0 447.4 447.4"><defs><style>.cls-1{fill:#eef1fa;}.cls-2{fill:#1b1925;}</style></defs><g id="Capa_2" data-name="Capa 2"><g id="Capa_1-2" data-name="Capa 1"><circle class="cls-1" cx="223.7" cy="223.7" r="223.7"/><polygon class="cls-2" points="229.93 370.01 267.19 332.66 281.43 242.53 210.03 291.09 229.93 370.01"/><polygon class="cls-2" points="81.66 221.83 119.01 184.57 209.14 170.33 160.58 241.73 81.66 221.83"/><polygon class="cls-2" points="191.27 192.73 256.95 260.15 215.47 312.67 143.29 237.37 191.27 192.73"/><circle class="cls-2" cx="213.76" cy="238.21" r="44.38"/><path class="cls-2" d="M335.85,115.87s12.26,75.84-65.56,164.53l-99-99C260,103.6,335.85,115.87,335.85,115.87"/><rect class="cls-2" x="131.53" y="255.73" width="104.28" height="30" rx="14.83" transform="translate(122.11 592.04) rotate(-135)"/><rect class="cls-2" x="132.77" y="267.17" width="84.59" height="24.34" rx="12.03" transform="translate(101.34 600.64) rotate(-135)"/><rect class="cls-2" x="145.56" y="318.25" width="32.82" height="5.74" rx="1.79" transform="translate(-179.63 208.59) rotate(-45)"/><rect class="cls-2" x="121.01" y="311.42" width="32.82" height="5.74" rx="1.79" transform="translate(-181.99 189.23) rotate(-45)"/><rect class="cls-2" x="114.79" y="287.48" width="32.82" height="5.74" rx="1.79" transform="translate(-166.88 177.82) rotate(-45)"/></g></g></svg>