<svg xmlns="http://www.w3.org/2000/svg" viewBox="0 0 299.38 459.03"><defs><style>.cls-1{font-size:65.89px;font-family:BebasNeue-Regular, Bebas Neue;}.cls-1,.cls-3{fill:#dde0e8;}.cls-2{letter-spacing:-0.08em;}</style></defs><g id="Capa_2" data-name="Capa 2"><g id="Capa_1-2" data-name="Capa 1"><text class="cls-1" transform="translate(0 445.85) scale(2.07 1)">Sve<tspan class="cls-2" x="73.6" y="0">l</tspan><tspan x="91.13" y="0">te</tspan></text><path class="cls-3" d="M7.78,252v-10.7c.08-.39.19-.78.24-1.17.34-3,.58-6,1-9a88.49,88.49,0,0,1,13.5-35.83,2.25,2.25,0,0,0,.14-2.62A94.89,94.89,0,0,1,12,152a96,96,0,0,1,2.15-24.62C19.63,102.6,32.9,83,54.12,69c23.37-15.32,47-30.2,70.56-45.25,5.87-3.75,11.64-7.69,17.72-11.06C164.08.71,187.28-2.6,211.49,2c26.71,5,48.66,18.27,65.61,39.59,12.17,15.31,19.7,32.59,21.75,52.15A102.39,102.39,0,0,1,297.2,125a89.32,89.32,0,0,1-13,31.58,1.52,1.52,0,0,0-.06,1.75,95.74,95.74,0,0,1,8.92,64.62c-5.16,25.39-18.68,45.47-40.4,59.59C226,299.92,198.83,316.75,172,334a102.83,102.83,0,0,1-51.15,16.86,104.53,104.53,0,0,1-34.82-4c-24.9-7.22-44.94-21.34-59.91-42.53A98.76,98.76,0,0,1,8.25,256.12C8.12,254.76,7.94,253.4,7.78,252ZM254,125.86a1.58,1.58,0,0,0,.25-.37c.44-1.35.85-2.7,1.31-4a58.06,58.06,0,0,0,2-29.35,59.24,59.24,0,0,0-11.5-25.94C234,50.37,218.06,41.54,198.27,40a60.11,60.11,0,0,0-37.79,9.63Q122.34,74,84.14,98.24c-4.37,2.79-8.86,5.4-12.68,9-14.39,13.36-20.41,29.88-18.52,49.33a55.61,55.61,0,0,0,9.25,26c14.58,21.62,35,31.72,61,29.87a57.2,57.2,0,0,0,27.12-9.06q14.93-9.58,29.89-19.09a20.1,20.1,0,0,1,15-3,18.94,18.94,0,0,1,15.34,18.32c0,6.39-2.85,11.26-8.19,14.69q-8.68,5.58-17.4,11.12c-21,13.43-42,26.91-63.08,40.26-6.94,4.4-14.22,4.54-21.18.05S91,254.87,91.88,246.8c.17-1.65.19-1.59-1.43-2.15-4-1.38-8-2.68-11.87-4.26A111.81,111.81,0,0,1,54,226.09c-.4-.3-.82-.56-1.43-1-.76,2.86-1.47,5.47-2.16,8.09A59.57,59.57,0,0,0,49.47,259a57.86,57.86,0,0,0,11.35,25.74c15.07,19.53,35,28.27,59.54,26.14,9.56-.82,18.29-4.33,26.36-9.47C173.81,284.13,200.94,267,228,249.62c15-9.61,23.77-23.31,26-41.06a57.86,57.86,0,0,0-4.37-30.77,65.23,65.23,0,0,0-65.93-39.18,58.86,58.86,0,0,0-26.09,8.78c-10.54,6.59-20.94,13.4-31.48,20a18.81,18.81,0,0,1-17.9,1.67c-6.7-2.75-10.85-7.78-11.78-15-1-7.54,2.08-13.31,8.55-17.3,2.9-1.79,5.74-3.66,8.6-5.49q35.77-22.86,71.56-45.71a19.56,19.56,0,0,1,25.36,3.62,19.08,19.08,0,0,1,4.38,15.53c-.15,1.15.28,1.44,1.22,1.71a108,108,0,0,1,33.74,16.5C251.17,123.91,252.56,124.88,254,125.86Z"/></g></g></svg>